<?xml version="1.0" encoding="UTF-8"?>
<!DOCTYPE svg PUBLIC "-//W3C//DTD SVG 1.1//EN" "http://www.w3.org/Graphics/SVG/1.1/DTD/svg11.dtd">
<svg xmlns="http://www.w3.org/2000/svg" xmlns:xlink="http://www.w3.org/1999/xlink" version="1.1" width="153px" height="146px" viewBox="-0.5 -0.5 153 146"><defs/><g><rect x="46" y="63" width="10" height="80" rx="1.5" ry="1.5" fill="#647687" stroke="#314354" stroke-width="3" pointer-events="all"/><rect x="96" y="63" width="10" height="80" rx="1.5" ry="1.5" fill="#647687" stroke="#314354" stroke-width="3" pointer-events="all"/><rect x="1" y="103" width="10" height="20" rx="1.5" ry="1.5" fill="#647687" stroke="#314354" stroke-width="3" pointer-events="all"/><rect x="141" y="103" width="10" height="20" rx="1.5" ry="1.5" fill="#647687" stroke="#314354" stroke-width="3" pointer-events="all"/><rect x="126" y="63" width="10" height="80" rx="1.5" ry="1.5" fill="#647687" stroke="#314354" stroke-width="3" pointer-events="all"/><rect x="16" y="63" width="10" height="80" rx="1.5" ry="1.5" fill="#647687" stroke="#314354" stroke-width="3" pointer-events="all"/><rect x="16" y="63" width="120" height="10" rx="1.5" ry="1.5" fill="#a0522d" stroke="#6d1f00" stroke-width="3" pointer-events="all"/><rect x="16" y="83" width="120" height="20" rx="3" ry="3" fill="#a0522d" stroke="#6d1f00" stroke-width="3" pointer-events="all"/><rect x="1" y="113" width="150" height="10" rx="1.5" ry="1.5" fill="#a0522d" stroke="#6d1f00" stroke-width="3" pointer-events="all"/><rect x="1" y="98" width="10" height="10" rx="1.5" ry="1.5" fill="#a0522d" stroke="#6d1f00" stroke-width="3" pointer-events="all"/><rect x="141" y="98" width="10" height="10" rx="1.5" ry="1.5" fill="#a0522d" stroke="#6d1f00" stroke-width="3" pointer-events="all"/><rect x="16" y="123" width="10" height="20" rx="1.5" ry="1.5" fill="#647687" stroke="#314354" stroke-width="3" pointer-events="all"/><rect x="46" y="123" width="10" height="20" rx="1.5" ry="1.5" fill="#647687" stroke="#314354" stroke-width="3" pointer-events="all"/><rect x="96" y="123" width="10" height="20" rx="1.5" ry="1.5" fill="#647687" stroke="#314354" stroke-width="3" pointer-events="all"/><rect x="126" y="123" width="10" height="20" rx="1.5" ry="1.5" fill="#647687" stroke="#314354" stroke-width="3" pointer-events="all"/><path d="M 36 93 Q 36 103 56 103" fill="none" stroke="#d79b00" stroke-width="5" stroke-miterlimit="10" pointer-events="stroke"/><path d="M 26 62 L 26 42 Q 26 22 49.21 31.28 L 102.79 52.72 Q 126 62 102.79 71.28 L 49.21 92.72 Q 26 102 26 82 Z" fill="#ffe6cc" stroke="#d79b00" stroke-width="3" stroke-miterlimit="10" transform="rotate(-90,76,62)" pointer-events="all"/><ellipse cx="91" cy="48" rx="15" ry="45" fill="#ffe6cc" stroke="#d79b00" stroke-width="3" transform="rotate(30,91,48)" pointer-events="all"/><ellipse cx="61" cy="48" rx="15" ry="45" fill="#ffe6cc" stroke="#d79b00" stroke-width="3" transform="rotate(-30,61,48)" pointer-events="all"/><ellipse cx="58" cy="43" rx="10" ry="30" fill="#f8cecc" stroke="#b85450" stroke-width="3" transform="rotate(-30,58,43)" pointer-events="all"/><ellipse cx="94" cy="43" rx="10" ry="30" fill="#f8cecc" stroke="#b85450" stroke-width="3" transform="rotate(30,94,43)" pointer-events="all"/><ellipse cx="76" cy="58" rx="40" ry="35" fill="#ffe6cc" stroke="#d79b00" stroke-width="3" pointer-events="all"/><ellipse cx="76" cy="62.5" rx="5" ry="3.5" fill="#000000" stroke="rgb(0, 0, 0)" stroke-width="3" pointer-events="all"/><ellipse cx="56" cy="53.5" rx="5" ry="5.5" fill="#000000" stroke="rgb(0, 0, 0)" stroke-width="3" pointer-events="all"/><ellipse cx="96" cy="53.5" rx="5" ry="5.5" fill="#000000" stroke="rgb(0, 0, 0)" stroke-width="3" pointer-events="all"/><path d="M 60 66 Q 61 73 68.5 73 Q 76 73 76 66" fill="none" stroke="rgb(0, 0, 0)" stroke-width="3" stroke-miterlimit="10" pointer-events="stroke"/><path d="M 76 66 Q 76 73 83.5 73 Q 91 73 92 66" fill="none" stroke="rgb(0, 0, 0)" stroke-width="3" stroke-miterlimit="10" pointer-events="stroke"/><path d="M 26 58 Q 36 58 46 63" fill="none" stroke="#666666" stroke-width="3" stroke-miterlimit="10" pointer-events="stroke"/><path d="M 106 63 Q 115 58 126 58" fill="none" stroke="#666666" stroke-width="3" stroke-miterlimit="10" pointer-events="stroke"/><path d="M 24 68 Q 36 67 46 68" fill="none" stroke="#666666" stroke-width="3" stroke-miterlimit="10" pointer-events="stroke"/><path d="M 106 68 Q 116 67 128 68" fill="none" stroke="#666666" stroke-width="3" stroke-miterlimit="10" pointer-events="stroke"/><path d="M 101 73 Q 111 73 121 77" fill="none" stroke="#666666" stroke-width="3" stroke-miterlimit="10" pointer-events="stroke"/><path d="M 31 77 Q 41 73 51 73" fill="none" stroke="#666666" stroke-width="3" stroke-miterlimit="10" pointer-events="stroke"/><path d="M 80 23 Q 78 43 78 23" fill="none" stroke="#d79b00" stroke-width="3" stroke-miterlimit="10" pointer-events="stroke"/><path d="M 74 23 Q 74 43 72 23" fill="none" stroke="#d79b00" stroke-width="3" stroke-miterlimit="10" pointer-events="stroke"/><ellipse cx="36" cy="93" rx="1" ry="1" fill="#ffe6cc" stroke="#d79b00" stroke-width="3" pointer-events="all"/><ellipse cx="61" cy="108" rx="10" ry="5" fill="#ffe6cc" stroke="#d79b00" stroke-width="3" pointer-events="none"/><ellipse cx="91" cy="108" rx="10" ry="5" fill="#ffe6cc" stroke="#d79b00" stroke-width="3" pointer-events="none"/><path d="M 66 112 Q 66 112 65 109" fill="none" stroke="#d79b00" stroke-width="3" stroke-miterlimit="10" pointer-events="none"/><path d="M 86 112 Q 86 112 87 109" fill="none" stroke="#d79b00" stroke-width="3" stroke-miterlimit="10" pointer-events="none"/><path d="M 95 112 Q 95 112 94 109" fill="none" stroke="#d79b00" stroke-width="3" stroke-miterlimit="10" pointer-events="none"/><path d="M 57 112 Q 57 112 58 109" fill="none" stroke="#d79b00" stroke-width="3" stroke-miterlimit="10" pointer-events="none"/></g></svg>